<svg id="Layer_1" data-name="Layer 1" xmlns="http://www.w3.org/2000/svg" viewBox="0 0 97.34 14.77"><defs><style>.cls-1{fill:#e7332b;}</style></defs><path d="M15.78,54.55v0l5.4-7.59V45.19H13.12v2H18.2v0L12.9,54.8v1.76h8.3v-2ZM28,48.75v3.79a2.61,2.61,0,0,1-.5,1.68,1.59,1.59,0,0,1-1.24.59,1.29,1.29,0,0,1-1.08-.42,2.51,2.51,0,0,1-.32-1.49V48.75H22.8v4.7A4.8,4.8,0,0,0,23,55a2.45,2.45,0,0,0,.6,1,2.58,2.58,0,0,0,.91.55,3.49,3.49,0,0,0,1.16.17,2.9,2.9,0,0,0,1.27-.27,3,3,0,0,0,1-.81h0v1h2.09V48.75Zm8.62-.14a2.65,2.65,0,0,0-1.3.34,3.18,3.18,0,0,0-1.06.95h0V48.75h-2.1v7.81h2.1V52.93a2.07,2.07,0,0,1,.52-1.46,1.9,1.9,0,0,1,1.47-.57c.16,0,.34,0,.55,0v-2.3Zm2.66-1a1.28,1.28,0,0,0,.92-.38,1.26,1.26,0,0,0,0-1.8,1.3,1.3,0,0,0-1.84,0,1.22,1.22,0,0,0-.37.89,1.19,1.19,0,0,0,.17.65,1.16,1.16,0,0,0,.47.46A1.25,1.25,0,0,0,39.31,47.65Zm-1,8.91h2.09V48.75H38.27Zm15.29,0H55.8V47.21H59v-2H50.42v2h3.14Zm10.23-8a2.65,2.65,0,0,0-1.3.34,3.18,3.18,0,0,0-1.06.95h0V48.75h-2.1v7.81h2.1V52.93a2.07,2.07,0,0,1,.52-1.46,1.91,1.91,0,0,1,1.47-.57c.16,0,.34,0,.56,0v-2.3Zm6.92.14v.88h0a2.91,2.91,0,0,0-2.3-1,3.57,3.57,0,0,0-1.46.31,3.44,3.44,0,0,0-1.18.84A4,4,0,0,0,65,51a5,5,0,0,0,0,3.29,3.66,3.66,0,0,0,.77,1.27,3.38,3.38,0,0,0,1.19.8,3.72,3.72,0,0,0,1.5.29,2.81,2.81,0,0,0,2.34-1.08h0v1h2V48.75Zm-1.89,6.07a1.87,1.87,0,0,1-1.44-.6,2.1,2.1,0,0,1-.56-1.54,2.22,2.22,0,0,1,.57-1.58,1.92,1.92,0,0,1,1.44-.6,1.85,1.85,0,0,1,1.41.62,2.28,2.28,0,0,1,.56,1.56,2.15,2.15,0,0,1-.57,1.54A1.87,1.87,0,0,1,68.82,54.82ZM76,47.65a1.29,1.29,0,0,0,.92-.38,1.26,1.26,0,0,0,0-1.8,1.29,1.29,0,0,0-.92-.38,1.26,1.26,0,0,0-.92.38,1.22,1.22,0,0,0-.37.89,1.19,1.19,0,0,0,.17.65,1.1,1.1,0,0,0,.47.46A1.25,1.25,0,0,0,76,47.65Zm-1,8.91h2.09V48.75H75Zm8.93-8a3.46,3.46,0,0,0-1.38.3,3.24,3.24,0,0,0-1.13.85h0v-1H79.27v7.81h2.09V52.63a2.37,2.37,0,0,1,.48-1.58,1.62,1.62,0,0,1,1.29-.55,1.46,1.46,0,0,1,1.14.43,2.46,2.46,0,0,1,.36,1.52v4.12h2.1V51.93a5.31,5.31,0,0,0-.2-1.53,2.69,2.69,0,0,0-.6-1A2.58,2.58,0,0,0,85,48.8,3.38,3.38,0,0,0,83.89,48.61Zm6-1a1.27,1.27,0,0,0,.91-.38,1.26,1.26,0,0,0,0-1.8,1.29,1.29,0,0,0-1.83,0,1.23,1.23,0,0,0-.38.89,1.19,1.19,0,0,0,.17.65,1.16,1.16,0,0,0,.47.46A1.26,1.26,0,0,0,89.88,47.65Zm-1,8.91h2.09V48.75H88.83Zm8.94-8a3.47,3.47,0,0,0-1.39.3,3.21,3.21,0,0,0-1.12.85h0v-1h-2.1v7.81h2.1V52.63a2.37,2.37,0,0,1,.47-1.58A1.62,1.62,0,0,1,97,50.5a1.43,1.43,0,0,1,1.13.43,2.45,2.45,0,0,1,.37,1.52v4.12h2.09V51.93a5.31,5.31,0,0,0-.2-1.53,2.3,2.3,0,0,0-1.48-1.6A3.42,3.42,0,0,0,97.77,48.61Zm10.38.14v.8h0a2.91,2.91,0,0,0-1.06-.69,3.47,3.47,0,0,0-1.28-.25,3.47,3.47,0,0,0-3.15,1.93,4.43,4.43,0,0,0-.46,2,4,4,0,0,0,.48,2A3.43,3.43,0,0,0,104,55.93a3.74,3.74,0,0,0,1.93.49,3,3,0,0,0,2.27-.91h0v.78a1.6,1.6,0,0,1-.58,1.25A2.5,2.5,0,0,1,106,58a4.17,4.17,0,0,1-1.3-.19,5.76,5.76,0,0,1-1.24-.54L103,59.07a6.31,6.31,0,0,0,3.21.79,5.47,5.47,0,0,0,1.57-.21,3.23,3.23,0,0,0,1.16-.57,3,3,0,0,0,.77-.89,3.71,3.71,0,0,0,.44-1.15,6.6,6.6,0,0,0,.13-1.38V48.75Zm-1.88,5.77a1.91,1.91,0,0,1-.64-.09,1.81,1.81,0,0,1-1-.67,1.55,1.55,0,0,1-.28-.56,2.17,2.17,0,0,1-.1-.69,1.91,1.91,0,0,1,.56-1.43,2.08,2.08,0,0,1,2.83,0,1.88,1.88,0,0,1,.57,1.43,2,2,0,0,1-.55,1.45A1.91,1.91,0,0,1,106.27,54.52Z" transform="translate(-12.9 -45.09)"/><path class="cls-1" d="M47.33,56.76a1.9,1.9,0,0,0,1.36-.56,1.88,1.88,0,0,0,0-2.7,2,2,0,0,0-2.76,0,1.93,1.93,0,0,0,0,2.72A1.93,1.93,0,0,0,47.33,56.76Z" transform="translate(-12.9 -45.09)"/></svg>